<svg xmlns="http://www.w3.org/2000/svg" viewBox="0 0 500 500"><g id="freepik--Mailbox--inject-219"><path d="M153.09,356.85H184.6a4.48,4.48,0,0,1,4.48,4.48v54.91a0,0,0,0,1,0,0H148.61a0,0,0,0,1,0,0V361.32A4.48,4.48,0,0,1,153.09,356.85Z" transform="translate(337.68 773.09) rotate(180)" style="fill:#009BE1"></path><polygon points="189.07 356.85 148.61 356.85 148.61 380.68 189.07 371.91 189.07 356.85" style="opacity:0.2"></polygon><path d="M206.48,284.81a57,57,0,1,1,114,0v72h-114Z" style="fill:#009BE1"></path><path d="M206.48,284.81a57,57,0,1,1,114,0v72h-114Z" style="opacity:0.30000000000000004"></path><path d="M72.29,284.8v64.95a7.1,7.1,0,0,0,7.11,7.1H206.48V284.8a57,57,0,0,1,57-57H129.29a57,57,0,0,0-57,57Z" style="fill:#009BE1"></path><rect x="72.29" y="315.6" width="134.19" height="20" transform="translate(278.78 651.19) rotate(180)" style="opacity:0.2"></rect><rect x="72.29" y="289.37" width="134.19" height="20" transform="translate(278.78 598.75) rotate(180)" style="opacity:0.2"></rect><rect x="198.56" y="224.3" width="16.33" height="1" style="fill:#009BE1"></rect><rect x="181.22" y="224.3" width="8.78" height="1" style="fill:#009BE1"></rect><path d="M137.92,303.54v-81a2.22,2.22,0,0,0-2.59-2.19L107.06,225v11.73h21.61v66.63a10.61,10.61,0,1,0,9.25.19Z" style="fill:#263238"></path><path d="M214.59,365H360.83a4.05,4.05,0,0,0,4.06-4h0a4.06,4.06,0,0,0-4.06-4.06H206.48A8.11,8.11,0,0,0,214.59,365Z" style="fill:#009BE1"></path><path d="M214.59,365h59.76a4.05,4.05,0,0,0,4.06-4h0a4.06,4.06,0,0,0-4.06-4.06H206.48A8.11,8.11,0,0,0,214.59,365Z" style="opacity:0.2"></path></g></svg>