<svg xmlns="http://www.w3.org/2000/svg" viewBox="0 0 500 500"><g id="freepik--Shadow--inject-131"><ellipse id="freepik--path--inject-131" cx="250" cy="416.24" rx="193.89" ry="11.32" style="fill:#f5f5f5"></ellipse></g><g id="freepik--Gear--inject-131"><path d="M307.77,119.9a42.3,42.3,0,0,0-3.22-7.76l2-6.55L293.62,92.65l-6.55,2a42.3,42.3,0,0,0-7.76-3.22l-3.22-6h-18.3l-3.21,6a42,42,0,0,0-7.76,3.22l-6.55-2-12.94,12.94,2,6.55a43,43,0,0,0-3.21,7.76l-6.05,3.22v18.3l6.05,3.21a42.67,42.67,0,0,0,3.21,7.76l-2,6.55,12.94,12.94,6.55-2a42.67,42.67,0,0,0,7.76,3.21l3.21,6h18.3l3.22-6a43,43,0,0,0,7.76-3.21l6.55,2,12.94-12.94-2-6.55a42,42,0,0,0,3.22-7.76l6.05-3.21v-18.3Zm-40.83,38.36a26,26,0,1,1,26-26A26,26,0,0,1,266.94,158.26Z" style="fill:#009BE1"></path><path d="M307.77,119.9a42.3,42.3,0,0,0-3.22-7.76l2-6.55L293.62,92.65l-6.55,2a42.3,42.3,0,0,0-7.76-3.22l-3.22-6h-18.3l-3.21,6a42,42,0,0,0-7.76,3.22l-6.55-2-12.94,12.94,2,6.55a43,43,0,0,0-3.21,7.76l-6.05,3.22v18.3l6.05,3.21a42.67,42.67,0,0,0,3.21,7.76l-2,6.55,12.94,12.94,6.55-2a42.67,42.67,0,0,0,7.76,3.21l3.21,6h18.3l3.22-6a43,43,0,0,0,7.76-3.21l6.55,2,12.94-12.94-2-6.55a42,42,0,0,0,3.22-7.76l6.05-3.21v-18.3Zm-40.83,38.36a26,26,0,1,1,26-26A26,26,0,0,1,266.94,158.26Z" style="fill:#fff;opacity:0.2"></path><path d="M266.94,123.65a8.62,8.62,0,1,0,8.62,8.62A8.62,8.62,0,0,0,266.94,123.65Z" style="fill:#009BE1"></path><path d="M438,148.93a61.16,61.16,0,0,0-4.59-11.1h0l2.86-9.36L417.8,110l-9.37,2.87h0a58.11,58.11,0,0,0-11.09-4.6h0l-4.59-8.64H366.6l-4.6,8.64a58.65,58.65,0,0,0-11.09,4.6h0L341.55,110l-18.49,18.49,2.86,9.36h0a59.76,59.76,0,0,0-4.59,11.1l-8.65,4.59v26.15l8.64,4.6h0a59.39,59.39,0,0,0,4.59,11.09h0l-2.86,9.35,18.49,18.49,9.36-2.86A58.61,58.61,0,0,0,362,224.94l4.6,8.65h26.15l4.59-8.64h0a59.42,59.42,0,0,0,11.09-4.6l9.37,2.86,18.49-18.49-2.86-9.36h0A60.77,60.77,0,0,0,438,184.27h0l8.64-4.6V153.52ZM379.67,214a47.41,47.41,0,1,1,47.41-47.41A47.41,47.41,0,0,1,379.67,214Z" style="fill:#009BE1"></path><path d="M379.67,125.83a40.77,40.77,0,1,0,40.78,40.77A40.82,40.82,0,0,0,379.67,125.83Zm0,76.11A35.34,35.34,0,1,1,415,166.6,35.38,35.38,0,0,1,379.67,201.94Z" style="fill:#009BE1"></path><path d="M379.67,125.83a40.77,40.77,0,1,0,40.78,40.77A40.82,40.82,0,0,0,379.67,125.83Zm0,76.11A35.34,35.34,0,1,1,415,166.6,35.38,35.38,0,0,1,379.67,201.94Z" style="opacity:0.2"></path><path d="M286,236.16a1,1,0,0,1-1-1v-2a1,1,0,1,1,2,0v2A1,1,0,0,1,286,236.16Z" style="fill:#009BE1"></path><path d="M270.43,210.32a5.41,5.41,0,0,1-2.06-2.45,1,1,0,0,0-1.84.79,7.55,7.55,0,0,0,2.81,3.34,1,1,0,0,0,.54.16,1,1,0,0,0,.55-1.84Z" style="fill:#009BE1"></path><path d="M266.94,197.83a1,1,0,0,0,1-1V193a1,1,0,0,0-2,0v3.83A1,1,0,0,0,266.94,197.83Z" style="fill:#009BE1"></path><path d="M277.35,211.2h-3.84a1,1,0,0,0,0,2h3.84a1,1,0,0,0,0-2Z" style="fill:#009BE1"></path><path d="M267.94,204.5v-3.83a1,1,0,0,0-2,0v3.83a1,1,0,0,0,2,0Z" style="fill:#009BE1"></path><path d="M286.94,217.7a1,1,0,0,0-1.12-.86A1,1,0,0,0,285,218a5.36,5.36,0,0,1,.05.7v3a1,1,0,0,0,2,0v-3A7.73,7.73,0,0,0,286.94,217.7Z" style="fill:#009BE1"></path><path d="M286,224.49a1,1,0,0,0-1,1v3.84a1,1,0,1,0,2,0v-3.84A1,1,0,0,0,286,224.49Z" style="fill:#009BE1"></path><path d="M285.13,213.73a7.41,7.41,0,0,0-3.71-2.29,1,1,0,0,0-.5,1.94,5.39,5.39,0,0,1,2.71,1.67,1,1,0,0,0,.75.34,1,1,0,0,0,.75-1.66Z" style="fill:#009BE1"></path><path d="M266.94,190.12a1,1,0,0,1-1-1v-2a1,1,0,0,1,2,0v2A1,1,0,0,1,266.94,190.12Z" style="fill:#009BE1"></path></g><g id="freepik--Desk--inject-131"><rect x="101.83" y="286.51" width="231.54" height="3.71" style="fill:#009BE1"></rect><rect x="333.37" y="286.51" width="50.24" height="3.71" transform="translate(716.98 576.73) rotate(180)" style="fill:#009BE1"></rect><rect x="333.37" y="286.51" width="50.24" height="3.71" transform="translate(716.98 576.73) rotate(180)" style="opacity:0.2"></rect><polygon points="366.83 294.19 118.61 294.19 110.31 290.22 375.13 290.22 366.83 294.19" style="fill:#009BE1"></polygon><polygon points="366.83 294.19 118.61 294.19 110.31 290.22 375.13 290.22 366.83 294.19" style="fill:#fff;opacity:0.6000000000000001"></polygon><polygon points="126.11 294.19 126.11 412.53 129.29 412.53 133.29 294.19 126.11 294.19" style="fill:#009BE1"></polygon><polygon points="163.65 294.19 163.65 412.53 166.83 412.53 170.83 294.19 163.65 294.19" style="fill:#009BE1"></polygon><polygon points="366.83 294.19 366.83 412.53 363.66 412.53 359.65 294.19 366.83 294.19" style="fill:#009BE1"></polygon><polygon points="329.3 294.19 329.3 412.53 326.12 412.53 322.12 294.19 329.3 294.19" style="fill:#009BE1"></polygon><polygon points="253.74 241.59 243.29 284.16 243.29 284.16 243 286.51 315.08 286.51 315.38 284.16 325.82 241.59 253.74 241.59" style="fill:#009BE1"></polygon><polygon points="253.74 241.59 243.29 284.16 243.29 284.16 243 286.51 315.08 286.51 315.38 284.16 325.82 241.59 253.74 241.59" style="opacity:0.30000000000000004"></polygon><polygon points="323.61 241.59 251.52 241.59 241.08 284.16 313.16 284.16 323.61 241.59" style="fill:#009BE1"></polygon><polygon points="311.63 282.21 321.13 243.54 253.05 243.54 243.56 282.21 311.63 282.21" style="fill:#fff"></polygon><polygon points="294.38 284.16 294.08 286.51 214.71 286.51 215 284.16 294.38 284.16" style="fill:#009BE1"></polygon><polygon points="294.38 284.16 294.08 286.51 214.71 286.51 215 284.16 294.38 284.16" style="fill:#fff;opacity:0.6000000000000001"></polygon><path d="M144.44,278.77a6.35,6.35,0,0,0-5.63-6.1v-1.15a.5.5,0,0,0-.52-.49h-10.8a.51.51,0,0,0-.53.49v15h11.85v-1.64A6.34,6.34,0,0,0,144.44,278.77Zm-5.63,4.17v-8.33a4.21,4.21,0,0,1,0,8.33Z" style="fill:#009BE1"></path><polygon points="346.56 286.51 356.6 286.51 353.63 264.52 346.56 264.52 346.56 286.51" style="fill:#263238"></polygon><polygon points="331.84 286.51 350.86 286.51 354.39 260.77 335.38 260.77 331.84 286.51" style="fill:#009BE1"></polygon><polygon points="331.84 286.51 350.86 286.51 354.39 260.77 335.38 260.77 331.84 286.51" style="opacity:0.30000000000000004"></polygon><polygon points="329.3 286.51 349.09 286.51 352.63 260.77 332.84 260.77 329.3 286.51" style="fill:#009BE1"></polygon><polygon points="347.34 284.48 350.32 262.8 334.59 262.8 331.61 284.48 347.34 284.48" style="fill:#fff;opacity:0.4"></polygon></g></svg>