<svg xmlns="http://www.w3.org/2000/svg" xmlns:xlink="http://www.w3.org/1999/xlink" viewBox="0 0 750 500"><defs><clipPath id="freepik--clip-path--inject-80"><path d="M91.13,181.45A17.05,17.05,0,0,1,102,183.74a15.87,15.87,0,0,1,5.4,5.2c3.5,5.81.76,9.13,3,11.51s4,3.39,3.61,5.11-3.1,3.07-3.5,3.37.76,5.85-.15,8.84-8.27,2.91-8.27,2.91-.84,5.44-1,7.23,1.48,15.53-6,11.3S83.29,230.79,82.84,229s1.92-7.32,2-9.06.16-2.56-.72-3.78-7-5.18-9.89-12.3.1-16.17,7.34-19.71A29.64,29.64,0,0,1,91.13,181.45Z" style="fill:#fff"></path></clipPath><clipPath id="freepik--clip-path-2--inject-80"><path d="M97.55,240.51a5.71,5.71,0,0,1-2.76-.87c-7.5-4.25-11.93-8.51-12.44-10.52-.3-1.2.43-3.59,1.15-5.9a19.27,19.27,0,0,0,.85-3.31v-.13c.09-1.61.12-2.28-.63-3.32a11.62,11.62,0,0,0-1.33-1.26c-2.24-2-6.41-5.61-8.62-11.16-3.06-7.67.34-16.79,7.58-20.34A29.56,29.56,0,0,1,91.08,181a17.64,17.64,0,0,1,11.13,2.36,16.25,16.25,0,0,1,5.57,5.37,13.81,13.81,0,0,1,2,7.88c0,1.53,0,2.63.9,3.54.53.56,1,1,1.47,1.47,1.51,1.46,2.61,2.51,2.27,4.09s-2.49,2.94-3.4,3.49l-.18.1c0,.32,0,1.11.1,1.81.18,2.07.41,4.91-.18,6.85-.88,2.91-6.58,3.23-8.32,3.26-.2,1.32-.81,5.33-1,6.8,0,.24,0,.83,0,1.51.08,3.16.22,9-2.45,10.63A2.89,2.89,0,0,1,97.55,240.51Zm-4.39-58.68a18.73,18.73,0,0,0-2,.11h0a28.67,28.67,0,0,0-9.39,2.66,15.21,15.21,0,0,0-7.09,19.07c2.12,5.32,6.17,8.87,8.35,10.78a11,11,0,0,1,1.48,1.42c1,1.33.91,2.27.82,4V220a19.53,19.53,0,0,1-.9,3.55c-.61,2-1.37,4.42-1.13,5.36.38,1.5,4.34,5.57,12,9.89,1.38.79,2.48.95,3.27.48,2.17-1.3,2-7,2-9.74a14,14,0,0,1,0-1.66c.2-1.77,1-7,1-7.25a.5.5,0,0,1,.5-.42c2,0,7.14-.41,7.79-2.56.54-1.76.3-4.6.15-6.47s-.19-2.36.18-2.63l.38-.23c.73-.44,2.67-1.6,2.93-2.83.21-1-.49-1.73-2-3.17-.46-.44-1-.93-1.5-1.5-1.15-1.2-1.16-2.6-1.18-4.22a12.93,12.93,0,0,0-1.91-7.37,15.18,15.18,0,0,0-5.23-5A16.5,16.5,0,0,0,93.16,181.83Zm17.74,27.33ZM91.13,181.45h0Z" style="fill:#263238;clip-path:url(#freepik--clip-path--inject-80)"></path></clipPath></defs><g id="freepik--Floor--inject-80"><path d="M729.26,481.69H26.42a.5.5,0,0,1,0-1H729.26a.5.5,0,0,1,0,1Z" style="fill:#263238"></path></g><g id="freepik--City--inject-80"><path d="M727,387.86H691a.5.5,0,0,1-.5-.5v-38.5h-8v25.5a.5.5,0,0,1-.5.5H670a.5.5,0,0,1-.5-.5v-18.5H658a.5.5,0,0,1-.5-.5v-17.5H639v36.5a.5.5,0,0,1-.5.5h-27a.5.5,0,0,1-.5-.5v-26.5h-3.55v11.79a.5.5,0,0,1-.5.5H590.52a.5.5,0,0,1-.5-.5V311.86H573v16.5a.5.5,0,0,1-.5.5H561v16.5a.5.5,0,0,1-.5.5h-21a.5.5,0,0,1-.5-.5v-13.5H519v20.5a.5.5,0,0,1-.5.5h-27a.5.5,0,0,1-.5-.5v-35.5h-51.5v32.5a.5.5,0,0,1-.5.5H409a.5.5,0,0,1-.5-.5v-24.5H375v42.5a.5.5,0,0,1-.5.5h-54a.5.5,0,0,1-.5-.5v-64.5H280.5v30.5a.5.5,0,0,1-.5.5H263.5a.5.5,0,0,1-.5-.5v-21.5H244.31v52.5a.5.5,0,0,1-.5.5H211a.5.5,0,0,1-.5-.5v-23.5h-32v24.5a.5.5,0,0,1-.5.5h-40.5a.5.5,0,0,1-.5-.5v-18.5H93v20.5a.5.5,0,0,1-.5.5H73a.5.5,0,0,1-.5-.5v-11.5H54v31.5a.5.5,0,0,1-.5.5H28a.5.5,0,0,1,0-1H53v-31.5a.5.5,0,0,1,.5-.5H73a.5.5,0,0,1,.5.5v11.5H92v-20.5a.5.5,0,0,1,.5-.5h45a.5.5,0,0,1,.5.5v18.5h39.5v-24.5a.5.5,0,0,1,.5-.5h33a.5.5,0,0,1,.5.5v23.5h31.82v-52.5a.5.5,0,0,1,.5-.5H263.5a.5.5,0,0,1,.5.5v21.5h15.5v-30.5a.5.5,0,0,1,.5-.5h40.5a.5.5,0,0,1,.5.5v64.5h53v-42.5a.5.5,0,0,1,.5-.5H409a.5.5,0,0,1,.5.5v24.5h29v-32.5a.5.5,0,0,1,.5-.5h52.5a.5.5,0,0,1,.5.5v35.5h26v-20.5a.5.5,0,0,1,.5-.5h21a.5.5,0,0,1,.5.5v13.5h20v-16.5a.5.5,0,0,1,.5-.5H572v-16.5a.5.5,0,0,1,.5-.5h18a.5.5,0,0,1,.5.5v47.79h15.45V347.36a.5.5,0,0,1,.5-.5h4.55a.5.5,0,0,1,.5.5v26.5h26v-36.5a.5.5,0,0,1,.5-.5H658a.5.5,0,0,1,.5.5v17.5H670a.5.5,0,0,1,.5.5v18.5h11v-25.5a.5.5,0,0,1,.5-.5h9a.5.5,0,0,1,.5.5v38.5H727a.5.5,0,0,1,0,1Z" style="fill:#263238"></path></g><g id="freepik--Factory--inject-80"><polygon points="464.76 317.61 464.76 266.25 384.13 266.25 384.13 317.61 327.4 317.61 327.4 481.19 384.13 481.19 464.76 481.19 521.5 481.19 521.5 317.61 464.76 317.61" style="fill:#263238"></polygon><path d="M521.5,481.69H327.4a.5.5,0,0,1-.5-.5V317.61a.5.5,0,0,1,.5-.5h56.23V266.25a.51.51,0,0,1,.5-.5h80.63a.5.5,0,0,1,.5.5v50.86H521.5a.51.51,0,0,1,.5.5V481.19A.5.5,0,0,1,521.5,481.69Zm-193.6-1H521V318.11H464.76a.5.5,0,0,1-.5-.5V266.75H384.63v50.86a.5.5,0,0,1-.5.5H327.9Z" style="fill:#263238"></path><polygon points="430.73 144.49 416.69 144.49 409.66 319.32 437.75 319.32 430.73 144.49" style="fill:#009BE1"></polygon><path d="M438.27,319.82H409.14L416.21,144h15l0,.48Zm-28.09-1h27.05l-7-173.83H417.17Z" style="fill:#263238"></path><path d="M430.64,146H416.78a1.51,1.51,0,0,1-1.51-1.51h0a1.51,1.51,0,0,1,1.51-1.51h13.86a1.52,1.52,0,0,1,1.51,1.51h0A1.52,1.52,0,0,1,430.64,146Z" style="fill:#fff"></path><path d="M430.64,146.53H416.78a2,2,0,1,1,0-4h13.86a2,2,0,0,1,0,4Zm-13.86-3a1,1,0,1,0,0,2h13.86a1,1,0,0,0,0-2Z" style="fill:#263238"></path><polygon points="416.36 152.52 416.11 158.82 431.31 158.82 431.05 152.52 416.36 152.52" style="fill:#fff"></polygon><path d="M431.83,159.32H415.59l.29-7.3h15.65Zm-15.2-1h14.15l-.21-5.3H416.84Z" style="fill:#263238"></path><polygon points="436.78 295.24 436.53 288.94 410.88 288.94 410.63 295.24 436.78 295.24" style="fill:#fff"></polygon><path d="M437.3,295.74H410.11l.29-7.3H437Zm-26.15-1h25.11l-.21-5.3H411.36Z" style="fill:#263238"></path><polygon points="412.45 249.96 412.2 256.26 435.22 256.26 434.96 249.96 412.45 249.96" style="fill:#fff"></polygon><path d="M435.74,256.76H411.68l.29-7.3h23.48Zm-23-1h22l-.22-5.3H412.93Z" style="fill:#263238"></path><polygon points="411.67 269.45 411.41 275.75 436 275.75 435.75 269.45 411.67 269.45" style="fill:#fff"></polygon><path d="M436.52,276.25H410.89l.3-7.3h25Zm-24.59-1h23.55l-.21-5.3H412.15Z" style="fill:#263238"></path><polygon points="413.23 230.47 412.98 236.78 434.44 236.78 434.18 230.47 413.23 230.47" style="fill:#fff"></polygon><path d="M435,237.28h-22.5l.29-7.31h21.91Zm-21.46-1h20.42L433.7,231h-20Z" style="fill:#263238"></path><polygon points="415.58 172 415.33 178.31 432.09 178.31 431.83 172 415.58 172" style="fill:#fff"></polygon><path d="M432.61,178.81h-17.8l.29-7.3h17.21Zm-16.76-1h15.72l-.22-5.3H416.06Z" style="fill:#263238"></path><polygon points="414.01 210.98 413.76 217.29 433.65 217.29 433.4 210.98 414.01 210.98" style="fill:#fff"></polygon><path d="M434.17,217.79H413.24l.29-7.31h20.35Zm-19.89-1h18.85l-.21-5.31H414.5Z" style="fill:#263238"></path><polygon points="414.8 191.49 414.55 197.8 432.87 197.8 432.62 191.49 414.8 191.49" style="fill:#fff"></polygon><path d="M433.39,198.3H414l.3-7.31H433.1Zm-18.32-1h17.28l-.21-5.31H415.28Z" style="fill:#263238"></path><polygon points="545.39 317.61 545.39 266.25 464.76 266.25 464.76 317.61 408.03 317.61 408.03 481.19 464.76 481.19 545.39 481.19 602.12 481.19 602.12 317.61 545.39 317.61" style="fill:#009BE1"></polygon><path d="M602.12,481.69H408a.5.5,0,0,1-.5-.5V317.61a.5.5,0,0,1,.5-.5h56.23V266.25a.5.5,0,0,1,.5-.5h80.63a.5.5,0,0,1,.5.5v50.86h56.23a.5.5,0,0,1,.5.5V481.19A.5.5,0,0,1,602.12,481.69Zm-193.59-1H601.62V318.11H545.39a.5.5,0,0,1-.5-.5V266.75H465.26v50.86a.5.5,0,0,1-.5.5H408.53Z" style="fill:#263238"></path><path d="M449,390.12H427.4V355.65a10.78,10.78,0,0,1,10.78-10.77h0A10.77,10.77,0,0,1,449,355.65Z" style="fill:#263238"></path><path d="M449,390.62H427.4a.5.5,0,0,1-.5-.5V355.65a11.28,11.28,0,0,1,22.55,0v34.47A.5.5,0,0,1,449,390.62Zm-21.05-1h20.55v-34a10.28,10.28,0,0,0-20.55,0Z" style="fill:#263238"></path><path d="M484.17,390.12H462.62V355.65a10.77,10.77,0,0,1,10.77-10.77h0a10.78,10.78,0,0,1,10.78,10.77Z" style="fill:#263238"></path><path d="M484.17,390.62H462.62a.5.5,0,0,1-.5-.5V355.65a11.28,11.28,0,0,1,22.55,0v34.47A.5.5,0,0,1,484.17,390.62Zm-21.05-1h20.55v-34a10.28,10.28,0,0,0-20.55,0Z" style="fill:#263238"></path><path d="M508.61,344.88h0a10.78,10.78,0,0,1,10.78,10.78v34.47a0,0,0,0,1,0,0H497.84a0,0,0,0,1,0,0V355.65A10.78,10.78,0,0,1,508.61,344.88Z" style="fill:#263238"></path><path d="M519.39,390.62H497.84a.5.5,0,0,1-.5-.5V355.65a11.28,11.28,0,0,1,22.55,0v34.47A.5.5,0,0,1,519.39,390.62Zm-21.05-1h20.55v-34a10.28,10.28,0,0,0-20.55,0Z" style="fill:#263238"></path><path d="M554.6,390.12H533.05V355.65a10.78,10.78,0,0,1,10.78-10.77h0a10.77,10.77,0,0,1,10.77,10.77Z" style="fill:#263238"></path><path d="M554.6,390.62H533.05a.5.5,0,0,1-.5-.5V355.65a11.28,11.28,0,0,1,22.55,0v34.47A.5.5,0,0,1,554.6,390.62Zm-21.05-1H554.1v-34a10.28,10.28,0,0,0-20.55,0Z" style="fill:#263238"></path><path d="M589.82,390.12H568.27V355.65A10.77,10.77,0,0,1,579,344.88h0a10.78,10.78,0,0,1,10.78,10.77Z" style="fill:#263238"></path><path d="M589.82,390.62H568.27a.5.5,0,0,1-.5-.5V355.65a11.28,11.28,0,0,1,22.55,0v34.47A.5.5,0,0,1,589.82,390.62Zm-21.05-1h20.55v-34a10.28,10.28,0,0,0-20.55,0Z" style="fill:#263238"></path><path d="M484.17,470.17H462.62V435.7a10.78,10.78,0,0,1,10.77-10.78h0a10.78,10.78,0,0,1,10.78,10.78Z" style="fill:#263238"></path><path d="M484.17,470.67H462.62a.5.5,0,0,1-.5-.5V435.7a11.28,11.28,0,1,1,22.55,0v34.47A.5.5,0,0,1,484.17,470.67Zm-21.05-1h20.55v-34a10.28,10.28,0,1,0-20.55,0Z" style="fill:#263238"></path><rect x="421.6" y="413.9" width="31.14" height="67.29" style="fill:#263238"></rect><path d="M452.75,481.69H421.6a.5.5,0,0,1-.5-.5V413.9a.5.5,0,0,1,.5-.5h31.15a.51.51,0,0,1,.5.5v67.29A.5.5,0,0,1,452.75,481.69Zm-30.65-1h30.15V414.4H422.1Z" style="fill:#263238"></path><rect x="327.4" y="317.61" width="80.63" height="163.58" style="fill:#263238"></rect><path d="M408,481.69H327.4a.5.5,0,0,1-.5-.5V317.61a.5.5,0,0,1,.5-.5H408a.51.51,0,0,1,.5.5V481.19A.5.5,0,0,1,408,481.69Zm-80.13-1h79.63V318.11H327.9Z" style="fill:#263238"></path><path d="M537.37,470.17H515.82V435.7a10.78,10.78,0,0,1,10.77-10.78h0a10.78,10.78,0,0,1,10.78,10.78Z" style="fill:#263238"></path><path d="M537.37,470.67H515.82a.5.5,0,0,1-.5-.5V435.7a11.28,11.28,0,1,1,22.55,0v34.47A.51.51,0,0,1,537.37,470.67Zm-21-1h20.55v-34a10.28,10.28,0,1,0-20.55,0Z" style="fill:#263238"></path><path d="M561.81,424.92h0a10.78,10.78,0,0,1,10.78,10.78v34.47a0,0,0,0,1,0,0H551a0,0,0,0,1,0,0V435.7A10.78,10.78,0,0,1,561.81,424.92Z" style="fill:#fff"></path><path d="M572.58,470.67H551a.51.51,0,0,1-.5-.5V435.7a11.28,11.28,0,1,1,22.55,0v34.47A.5.5,0,0,1,572.58,470.67Zm-21.05-1h20.55v-34a10.28,10.28,0,1,0-20.55,0Z" style="fill:#263238"></path><path d="M607.8,470.17H586.25V435.7A10.78,10.78,0,0,1,597,424.92h0A10.78,10.78,0,0,1,607.8,435.7Z" style="fill:#fff"></path><path d="M607.8,470.67H586.25a.5.5,0,0,1-.5-.5V435.7a11.28,11.28,0,1,1,22.55,0v34.47A.5.5,0,0,1,607.8,470.67Zm-21-1H607.3v-34a10.28,10.28,0,1,0-20.55,0Z" style="fill:#263238"></path><rect x="524.83" y="430.14" width="86.49" height="51.05" style="fill:#263238"></rect><path d="M611.32,481.69H524.83a.5.5,0,0,1-.5-.5V430.14a.5.5,0,0,1,.5-.5h86.49a.5.5,0,0,1,.5.5v51.05A.5.5,0,0,1,611.32,481.69Zm-86-1h85.49V430.64H525.33Z" style="fill:#263238"></path><polygon points="609.49 418.46 631.72 431.44 627.45 431.44 605.36 420.4 609.49 418.46" style="fill:#fff"></polygon><path d="M633.57,432h-6.24l-23.12-11.56,5.31-2.49Zm-6-1h2.32L609.47,419l-3,1.4Z" style="fill:#263238"></path><polygon points="629.39 481.19 588.34 481.19 588.34 430.14 609.49 418.46 629.39 430.14 629.39 481.19" style="fill:#009BE1"></polygon><path d="M629.39,481.69h-41a.5.5,0,0,1-.5-.5V430.14a.47.47,0,0,1,.25-.43L609.25,418a.52.52,0,0,1,.5,0l19.89,11.68a.52.52,0,0,1,.25.43v51.05A.5.5,0,0,1,629.39,481.69Zm-40.55-1h40V430.43L609.49,419l-20.65,11.4Z" style="fill:#263238"></path><polygon points="521.67 432.04 585.18 432.04 609.49 418.46 545.73 418.46 521.67 432.04" style="fill:#8f8f8f"></polygon><path d="M585.18,432.54H521.67a.5.5,0,0,1-.49-.37.52.52,0,0,1,.24-.57L545.49,418a.5.5,0,0,1,.24-.06h63.76a.5.5,0,0,1,.49.37.52.52,0,0,1-.24.57l-24.32,13.58A.5.5,0,0,1,585.18,432.54Zm-61.61-1h61.48L607.57,419h-61.7Z" style="fill:#263238"></path><rect x="606.02" y="426.04" width="6.63" height="6" style="fill:#263238"></rect><path d="M613.15,432.54h-7.63v-7h7.63Zm-6.63-1h5.63v-5h-5.63Z" style="fill:#263238"></path><rect x="563.37" y="444.07" width="14.85" height="37.12" style="fill:#8f8f8f"></rect><path d="M578.22,481.69H563.37a.5.5,0,0,1-.5-.5V444.07a.5.5,0,0,1,.5-.5h14.85a.5.5,0,0,1,.5.5v37.12A.5.5,0,0,1,578.22,481.69Zm-14.35-1h13.85V444.57H563.87Z" style="fill:#263238"></path><rect x="534.83" y="444.07" width="14.85" height="37.12" style="fill:#8f8f8f"></rect><path d="M549.68,481.69H534.83a.5.5,0,0,1-.5-.5V444.07a.5.5,0,0,1,.5-.5h14.85a.5.5,0,0,1,.5.5v37.12A.5.5,0,0,1,549.68,481.69Zm-14.35-1h13.85V444.57H535.33Z" style="fill:#263238"></path><rect x="472.65" y="275.27" width="13.92" height="20.88" style="fill:#263238"></rect><path d="M486.57,296.65H472.65a.5.5,0,0,1-.5-.5V275.27a.5.5,0,0,1,.5-.5h13.92a.5.5,0,0,1,.5.5v20.88A.5.5,0,0,1,486.57,296.65Zm-13.42-1h12.92V275.77H473.15Z" style="fill:#263238"></path><rect x="491.79" y="305.43" width="9.85" height="14.78" style="fill:#263238"></rect><path d="M501.64,320.71h-9.85a.5.5,0,0,1-.5-.5V305.43a.5.5,0,0,1,.5-.5h9.85a.5.5,0,0,1,.5.5v14.78A.5.5,0,0,1,501.64,320.71Zm-9.35-1h8.85V305.93h-8.85Z" style="fill:#263238"></path><rect x="523.41" y="305.43" width="9.85" height="14.78" style="fill:#263238"></rect><path d="M533.26,320.71h-9.85a.5.5,0,0,1-.5-.5V305.43a.5.5,0,0,1,.5-.5h9.85a.5.5,0,0,1,.5.5v14.78A.5.5,0,0,1,533.26,320.71Zm-9.35-1h8.85V305.93h-8.85Z" style="fill:#263238"></path><path d="M362.77,390.12H341.22V355.65A10.77,10.77,0,0,1,352,344.88h0a10.77,10.77,0,0,1,10.78,10.77Z" style="fill:#fff"></path><path d="M362.77,390.62H341.22a.5.5,0,0,1-.5-.5V355.65a11.28,11.28,0,0,1,22.55,0v34.47A.5.5,0,0,1,362.77,390.62Zm-21-1h20.55v-34a10.28,10.28,0,0,0-20.55,0Z" style="fill:#263238"></path><path d="M401.05,390.12H379.5V355.65a10.78,10.78,0,0,1,10.78-10.77h0a10.77,10.77,0,0,1,10.77,10.77Z" style="fill:#fff"></path><path d="M401.05,390.62H379.5a.5.5,0,0,1-.5-.5V355.65a11.28,11.28,0,0,1,22.55,0v34.47A.5.5,0,0,1,401.05,390.62Zm-21.05-1h20.55v-34a10.28,10.28,0,0,0-20.55,0Z" style="fill:#263238"></path><path d="M362.77,470.17H341.22V435.7A10.78,10.78,0,0,1,352,424.92h0a10.78,10.78,0,0,1,10.78,10.78Z" style="fill:#fff"></path><path d="M362.77,470.67H341.22a.5.5,0,0,1-.5-.5V435.7a11.28,11.28,0,1,1,22.55,0v34.47A.5.5,0,0,1,362.77,470.67Zm-21-1h20.55v-34a10.28,10.28,0,1,0-20.55,0Z" style="fill:#263238"></path><path d="M401.05,470.17H379.5V435.7a10.78,10.78,0,0,1,10.78-10.78h0a10.78,10.78,0,0,1,10.77,10.78Z" style="fill:#fff"></path><path d="M401.05,470.67H379.5a.51.51,0,0,1-.5-.5V435.7a11.28,11.28,0,1,1,22.55,0v34.47A.5.5,0,0,1,401.05,470.67Zm-21.05-1h20.55v-34a10.28,10.28,0,1,0-20.55,0Z" style="fill:#263238"></path></g><g id="freepik--trees-2--inject-80"><path d="M325.56,368.88c0,26.59-15.73,48.13-35.12,48.13s-35.13-21.54-35.13-48.13S271,250.94,290.44,250.94,325.56,342.3,325.56,368.88Z" style="fill:#009BE1"></path><polygon points="310.13 382.79 299.49 386.73 301.63 380.32 296.54 387.82 291.47 389.69 291.11 368.67 309.58 344.12 299.68 354.03 301.35 347.14 296.62 357.09 291 362.7 290.44 329.86 288.42 377.76 270.91 359.21 280.53 372.28 271.46 371.27 282.67 375.18 288.21 382.73 287.24 405.82 280.79 401.44 287.04 410.6 284.08 481.19 293.05 481.19 291.52 393.05 310.13 382.79" style="fill:#263238"></polygon><path d="M309.76,330a7.63,7.63,0,0,1-6.39,8.58,7.64,7.64,0,0,1,6.39-8.58Z" style="fill:#fff"></path><path d="M320.34,344.84a7.63,7.63,0,0,1-6.38,8.57,7.63,7.63,0,0,1,6.38-8.57Z" style="fill:#fff"></path><path d="M320.34,373.79a7.62,7.62,0,0,1-8.9,5.93,7.64,7.64,0,0,1,8.9-5.93Z" style="fill:#fff"></path><path d="M262.2,373.79a7.62,7.62,0,0,0,8.9,5.93,7.63,7.63,0,0,0-8.9-5.93Z" style="fill:#fff"></path><path d="M308.11,361.77a7.63,7.63,0,0,1-6.38,8.58,7.62,7.62,0,0,1,6.38-8.58Z" style="fill:#fff"></path><path d="M305.37,313.78a7.63,7.63,0,0,1-6.39,8.58,7.64,7.64,0,0,1,6.39-8.58Z" style="fill:#fff"></path><path d="M299.06,326.12a7.63,7.63,0,0,1-6.38,8.58,7.62,7.62,0,0,1,6.38-8.58Z" style="fill:#fff"></path><path d="M314,317.14a7.64,7.64,0,0,1-6.39,8.58,7.63,7.63,0,0,1,6.39-8.58Z" style="fill:#fff"></path><path d="M265.38,317.14a7.64,7.64,0,0,0,6.39,8.58,7.63,7.63,0,0,0-6.39-8.58Z" style="fill:#fff"></path><path d="M306.74,298.7a7.63,7.63,0,0,1-6.39,8.58,7.63,7.63,0,0,1,6.39-8.58Z" style="fill:#fff"></path><path d="M303.64,282.68a7.64,7.64,0,0,1-4,9.91,7.64,7.64,0,0,1,4-9.91Z" style="fill:#fff"></path><path d="M281.43,278.49a7.64,7.64,0,0,1,3.65,10.06,7.64,7.64,0,0,1-3.65-10.06Z" style="fill:#fff"></path><path d="M291.79,297.65a7.62,7.62,0,0,1-.62,10.68,7.64,7.64,0,0,1,.62-10.68Z" style="fill:#fff"></path><path d="M291.24,269.13a7.63,7.63,0,0,1-.61,10.68,7.63,7.63,0,0,1,.61-10.68Z" style="fill:#fff"></path><path d="M268,330a7.63,7.63,0,0,0,6.39,8.58A7.64,7.64,0,0,0,268,330Z" style="fill:#fff"></path><path d="M262,347.51a7.63,7.63,0,0,0,6.39,8.58,7.64,7.64,0,0,0-6.39-8.58Z" style="fill:#fff"></path><path d="M278,353.89a7.63,7.63,0,0,0,6.38,8.57,7.63,7.63,0,0,0-6.38-8.57Z" style="fill:#fff"></path><path d="M282.36,329.57A7.62,7.62,0,0,0,286,339.62a7.64,7.64,0,0,0-3.66-10.05Z" style="fill:#fff"></path><path d="M271,394.28a7.63,7.63,0,0,0,8-7.07,7.63,7.63,0,0,0-8,7.07Z" style="fill:#fff"></path><path d="M302.13,390.73a7.63,7.63,0,0,0,9.09,5.64,7.63,7.63,0,0,0-9.09-5.64Z" style="fill:#fff"></path><path d="M274.63,313.78a7.63,7.63,0,0,0,6.39,8.58,7.64,7.64,0,0,0-6.39-8.58Z" style="fill:#fff"></path><path d="M274.58,299.52A7.63,7.63,0,0,0,281,308.1a7.65,7.65,0,0,0-6.38-8.58Z" style="fill:#fff"></path><path d="M373.7,408.3c0,17.25-10.2,31.24-22.79,31.24s-22.8-14-22.8-31.24,10.21-76.55,22.8-76.55S373.7,391.05,373.7,408.3Z" style="fill:#009BE1"></path><polygon points="363.69 417.32 356.79 419.88 358.17 415.72 354.87 420.59 351.58 421.8 351.34 408.16 363.33 392.23 356.91 398.65 358 394.19 354.92 400.64 351.28 404.29 350.91 382.97 349.6 414.06 338.24 402.02 344.48 410.5 338.59 409.85 345.87 412.38 349.47 417.28 348.84 432.27 344.65 429.43 348.71 435.37 346.78 481.19 352.6 481.19 351.62 423.98 363.69 417.32" style="fill:#263238"></polygon><path d="M363.45,383a4.93,4.93,0,0,1-4.15,5.56,5,5,0,0,1,4.15-5.56Z" style="fill:#fff"></path><path d="M370.32,392.69a4.95,4.95,0,0,1-4.15,5.57,5,5,0,0,1,4.15-5.57Z" style="fill:#fff"></path><path d="M370.32,411.49a4.95,4.95,0,0,1-5.78,3.84,5.83,5.83,0,0,1,2.1-3.1A5.77,5.77,0,0,1,370.32,411.49Z" style="fill:#fff"></path><path d="M332.58,411.49a5,5,0,0,0,5.78,3.84,4.95,4.95,0,0,0-5.78-3.84Z" style="fill:#fff"></path><path d="M362.38,403.68a4.94,4.94,0,0,1-4.14,5.57,5,5,0,0,1,4.14-5.57Z" style="fill:#fff"></path><path d="M360.6,372.54a4.94,4.94,0,0,1-4.14,5.56,4.94,4.94,0,0,1,4.14-5.56Z" style="fill:#fff"></path><path d="M356.51,380.54a5,5,0,0,1-4.15,5.57,5,5,0,0,1,4.15-5.57Z" style="fill:#fff"></path><path d="M366.23,374.71a5,5,0,0,1-4.15,5.57,4.95,4.95,0,0,1,4.15-5.57Z" style="fill:#fff"></path><path d="M334.65,374.71a5,5,0,0,0,4.14,5.57,5,5,0,0,0-4.14-5.57Z" style="fill:#fff"></path><path d="M361.49,362.75a4.94,4.94,0,0,1-4.14,5.56,5.84,5.84,0,0,1,.93-3.63A5.76,5.76,0,0,1,361.49,362.75Z" style="fill:#fff"></path><path d="M359.48,352.35a5,5,0,0,1-2.61,6.43,5,5,0,0,1,2.61-6.43Z" style="fill:#fff"></path><path d="M345.06,349.63a5,5,0,0,1,2.37,6.53,5,5,0,0,1-2.37-6.53Z" style="fill:#fff"></path><path d="M351.79,362.06a4.95,4.95,0,0,1-.4,6.93,4.95,4.95,0,0,1,.4-6.93Z" style="fill:#fff"></path><path d="M351.43,343.55a4.95,4.95,0,0,1-.4,6.93,4.95,4.95,0,0,1,.4-6.93Z" style="fill:#fff"></path><path d="M336.34,383a5,5,0,0,0,4.15,5.56,4.93,4.93,0,0,0-4.15-5.56Z" style="fill:#fff"></path><path d="M332.43,394.43a5,5,0,0,0,4.14,5.57,4.94,4.94,0,0,0-4.14-5.57Z" style="fill:#fff"></path><path d="M342.82,398.56a5,5,0,0,0,4.15,5.57,5,5,0,0,0-4.15-5.57Z" style="fill:#fff"></path><path d="M345.66,382.78A5,5,0,0,0,348,389.3a4.93,4.93,0,0,0-2.38-6.52Z" style="fill:#fff"></path><path d="M338.3,424.78a4.94,4.94,0,0,0,5.21-4.59,5,5,0,0,0-5.21,4.59Z" style="fill:#fff"></path><path d="M358.5,422.48a5,5,0,0,0,5.9,3.66,4.94,4.94,0,0,0-5.9-3.66Z" style="fill:#fff"></path><path d="M340.65,372.54a5,5,0,0,0,4.15,5.56,5,5,0,0,0-4.15-5.56Z" style="fill:#fff"></path><path d="M340.62,363.28a5,5,0,0,0,4.14,5.57,5,5,0,0,0-4.14-5.57Z" style="fill:#fff"></path><path d="M676.49,408.3c0,17.25-10.21,31.24-22.8,31.24s-22.79-14-22.79-31.24,10.2-76.55,22.79-76.55S676.49,391.05,676.49,408.3Z" style="fill:#009BE1"></path><polygon points="666.48 417.32 659.57 419.88 660.96 415.72 657.66 420.59 654.36 421.8 654.13 408.16 666.12 392.23 659.69 398.65 660.78 394.19 657.71 400.64 654.06 404.29 653.7 382.97 652.39 414.06 641.02 402.02 647.27 410.5 641.38 409.85 648.65 412.38 652.25 417.28 651.62 432.27 647.43 429.43 651.49 435.37 649.57 481.19 655.39 481.19 654.4 423.98 666.48 417.32" style="fill:#263238"></polygon><path d="M666.24,383a5,5,0,0,1-4.15,5.56,4.93,4.93,0,0,1,4.15-5.56Z" style="fill:#fff"></path><path d="M673.11,392.69a5,5,0,0,1-4.15,5.57,4.95,4.95,0,0,1,4.15-5.57Z" style="fill:#fff"></path><path d="M673.1,411.49a4.95,4.95,0,0,1-5.77,3.84,4.95,4.95,0,0,1,5.77-3.84Z" style="fill:#fff"></path><path d="M635.37,411.49a4.95,4.95,0,0,0,5.78,3.84,5.83,5.83,0,0,0-2.1-3.1A5.77,5.77,0,0,0,635.37,411.49Z" style="fill:#fff"></path><path d="M665.17,403.68a5,5,0,0,1-4.15,5.57,5,5,0,0,1,4.15-5.57Z" style="fill:#fff"></path><path d="M663.39,372.54a5,5,0,0,1-4.15,5.56,5,5,0,0,1,4.15-5.56Z" style="fill:#fff"></path><path d="M659.29,380.54a4.94,4.94,0,0,1-4.14,5.57,5,5,0,0,1,4.14-5.57Z" style="fill:#fff"></path><path d="M669,374.71a5,5,0,0,1-4.14,5.57,5,5,0,0,1,4.14-5.57Z" style="fill:#fff"></path><path d="M637.43,374.71a5,5,0,0,0,4.15,5.57,5,5,0,0,0-4.15-5.57Z" style="fill:#fff"></path><path d="M664.28,362.75a5,5,0,0,1-4.15,5.56,5,5,0,0,1,4.15-5.56Z" style="fill:#fff"></path><path d="M662.27,352.35a5.78,5.78,0,0,1,0,3.75,5.84,5.84,0,0,1-2.62,2.68,4.94,4.94,0,0,1,2.62-6.43Z" style="fill:#fff"></path><path d="M647.85,349.63a5,5,0,0,1,2.37,6.53,5,5,0,0,1-2.37-6.53Z" style="fill:#fff"></path><path d="M654.57,362.06a4.95,4.95,0,0,1-.4,6.93,5,5,0,0,1,.4-6.93Z" style="fill:#fff"></path><path d="M654.22,343.55a4.95,4.95,0,0,1-.4,6.93,4.95,4.95,0,0,1,.4-6.93Z" style="fill:#fff"></path><path d="M639.13,383a4.93,4.93,0,0,0,4.15,5.56,5,5,0,0,0-4.15-5.56Z" style="fill:#fff"></path><path d="M635.21,394.43a5,5,0,0,0,4.15,5.57,4.93,4.93,0,0,0-4.15-5.57Z" style="fill:#fff"></path><path d="M645.61,398.56a4.94,4.94,0,0,0,4.14,5.57,5,5,0,0,0-4.14-5.57Z" style="fill:#fff"></path><path d="M648.45,382.78a4.93,4.93,0,0,0,2.38,6.52,5,5,0,0,0-2.38-6.52Z" style="fill:#fff"></path><path d="M641.09,424.78a5,5,0,0,0,5.21-4.59,5,5,0,0,0-5.21,4.59Z" style="fill:#fff"></path><path d="M661.28,422.48a5.85,5.85,0,0,0,2.21,3,5.75,5.75,0,0,0,3.69.63,4.94,4.94,0,0,0-5.9-3.66Z" style="fill:#fff"></path><path d="M643.44,372.54a4.94,4.94,0,0,0,4.14,5.56,4.94,4.94,0,0,0-4.14-5.56Z" style="fill:#fff"></path><path d="M643.4,363.28a5,5,0,0,0,4.15,5.57,5,5,0,0,0-4.15-5.57Z" style="fill:#fff"></path></g><g id="freepik--Clouds--inject-80"><path d="M681.81,73.76H547.21a.5.5,0,0,1-.35-.85c.77-.78,2.85-3.06,3.16-4.3.45-1.79,6.14-2.3,8.63-2.43a9.4,9.4,0,0,0,5.79-5.44C565.8,57,572,56.4,576.5,56a33.8,33.8,0,0,0,3.53-.47,8.79,8.79,0,0,0,3.5-1.72.5.5,0,0,1,.7.09.5.5,0,0,1-.08.7,10,10,0,0,1-3.9,1.91,34.77,34.77,0,0,1-3.65.48c-4.25.43-10.08,1-11.22,4.14a10.28,10.28,0,0,1-6.51,6.08h-.11c-4,.21-7.6,1-7.77,1.68a12,12,0,0,1-2.61,3.91H681.53c.69-1.23,3.41-7.07-2.93-12.71-3-2.66-7.31-2-11.11-1.48-4.11.6-8,1.17-8.85-2.92a.5.5,0,0,1,1-.21c.63,3,3.22,2.8,7.72,2.14,4-.59,8.58-1.25,11.93,1.72,7.64,6.8,3,14.16,3,14.23A.5.5,0,0,1,681.81,73.76Z" style="fill:#263238"></path><path d="M587.38,50.75a.48.48,0,0,1-.28-.08A.5.5,0,0,1,587,50a31.34,31.34,0,0,0,3-5.71,9.1,9.1,0,0,1,5.57-5.42c4.09-1.41,9.67-.31,15.72,3.11,3.77,2.14,6.39,2.83,8.24,2.18,2.2-.78,3.27-3.46,4.63-6.87a16,16,0,0,1,8.7-8.37,17.91,17.91,0,0,1,14.19.28c6.55,2.77,9.8,10.1,11.37,15.76a.5.5,0,1,1-1,.27c-1.51-5.45-4.61-12.49-10.8-15.11a16.9,16.9,0,0,0-13.42-.27,15.13,15.13,0,0,0-8.15,7.81c-1.39,3.5-2.6,6.52-5.23,7.44-2.14.75-5,0-9.06-2.25-5.8-3.27-11.09-4.35-14.9-3a8.08,8.08,0,0,0-5,4.85,33.46,33.46,0,0,1-3.1,5.9A.51.51,0,0,1,587.38,50.75Z" style="fill:#263238"></path><path d="M541.19,126.43H494.44a.5.5,0,0,1-.5-.5.5.5,0,0,1,.5-.5h46.45c.47-.89,1.79-4.17-1.78-7.35-1.74-1.55-4.3-1.17-6.56-.84-2,.28-3.8.55-4.86-.51-.76-.76-1-2-.7-4-.09-.82-1.28-10.24-7.16-12.72a9.94,9.94,0,0,0-9.85.88.5.5,0,0,1-.7-.12.49.49,0,0,1,.12-.69,10.93,10.93,0,0,1,10.82-1c6.67,2.82,7.73,13.17,7.77,13.6v.12c-.24,1.63-.11,2.71.4,3.22.71.71,2.24.49,4,.23,2.36-.34,5.28-.77,7.37,1.09,4.75,4.22,1.86,8.81,1.84,8.86A.52.52,0,0,1,541.19,126.43Z" style="fill:#263238"></path><path d="M487.11,126.43H459.77a.5.5,0,0,1-.46-.31.51.51,0,0,1,.11-.55,8.57,8.57,0,0,0,1.86-2.5c.28-1.11,3.06-1.5,5.38-1.62a5.52,5.52,0,0,0,3.35-3.16c.86-2.37,4.67-2.75,7.46-3a19.65,19.65,0,0,0,2.11-.28c2.22-.49,4.3-2.86,5.87-6.67a5.78,5.78,0,0,1,3.49-3.39c2.52-.87,6-.2,9.67,1.9,2.2,1.24,3.78,1.67,4.82,1.3,1.24-.44,1.88-2,2.68-4a.51.51,0,0,1,.65-.28.5.5,0,0,1,.28.65c-.86,2.16-1.61,4-3.28,4.61-1.35.48-3.15,0-5.64-1.37-3.46-2-6.61-2.6-8.85-1.82a4.71,4.71,0,0,0-2.89,2.82c-2.18,5.28-4.78,6.87-6.58,7.27a21,21,0,0,1-2.23.29c-2.52.26-6,.6-6.62,2.38a6.43,6.43,0,0,1-4.07,3.8h-.11c-2.17.12-4.29.54-4.53.9a6.42,6.42,0,0,1-1.33,2.09h26.2a.5.5,0,0,1,.5.5A.51.51,0,0,1,487.11,126.43Z" style="fill:#263238"></path><path d="M713.17,218.75H691.09a.51.51,0,0,1-.5-.5.5.5,0,0,1,.5-.5h21.79c.46-.89,1.79-4.17-1.78-7.34-1.75-1.55-4.31-1.18-6.57-.85-1.95.28-3.8.55-4.86-.51-.75-.76-1-2-.7-4-.09-.82-1.27-10.23-7.15-12.72a10.08,10.08,0,0,0-8-.17,9,9,0,0,0-4.82,4.62c-.86,2.16-1.61,4-3.28,4.61-1.35.48-3.15,0-5.65-1.37-3.45-1.95-6.6-2.6-8.85-1.82a4.74,4.74,0,0,0-2.89,2.82c-2.17,5.28-4.77,6.87-6.57,7.27a21.2,21.2,0,0,1-2.24.29c-2.52.26-6,.6-6.62,2.38a6.43,6.43,0,0,1-4.07,3.8h-.1c-2.17.12-4.29.54-4.54.9a6.21,6.21,0,0,1-1.32,2.09h50.86a.5.5,0,0,1,.5.5.5.5,0,0,1-.5.5h-52a.5.5,0,0,1-.46-.31.47.47,0,0,1,.11-.54,8.78,8.78,0,0,0,1.86-2.51c.27-1.11,3.06-1.49,5.37-1.62a5.47,5.47,0,0,0,3.36-3.16c.86-2.37,4.67-2.75,7.45-3a20.26,20.26,0,0,0,2.12-.28c2.21-.49,4.3-2.86,5.87-6.67a5.79,5.79,0,0,1,3.48-3.39c2.53-.87,6-.2,9.68,1.9,2.2,1.24,3.77,1.67,4.82,1.3,1.24-.44,1.88-2,2.68-4a9.84,9.84,0,0,1,5.37-5.17,11,11,0,0,1,8.73.17c6.68,2.82,7.73,13.17,7.78,13.61a.49.49,0,0,1,0,.12c-.24,1.62-.1,2.7.41,3.21.71.71,2.24.49,4,.23,2.35-.34,5.28-.77,7.37,1.09,4.75,4.22,1.86,8.81,1.83,8.86A.5.5,0,0,1,713.17,218.75Z" style="fill:#263238"></path></g><g id="freepik--speech-bubble--inject-80"><path d="M432.75,231.61H155.8a13.94,13.94,0,0,1-14.08-13.77V203.67l-16.11,5.58a.51.51,0,0,1-.58-.2.48.48,0,0,1,0-.61l16.64-18.13V38.15A13.94,13.94,0,0,1,155.8,24.38h277a14,14,0,0,1,14.09,13.77V217.84A14,14,0,0,1,432.75,231.61ZM142.22,202.46a.53.53,0,0,1,.29.1.49.49,0,0,1,.21.4v14.88a12.94,12.94,0,0,0,13.08,12.77h277a13,13,0,0,0,13.09-12.77V38.15a13,13,0,0,0-13.09-12.77H155.8a12.94,12.94,0,0,0-13.08,12.77V190.51a.47.47,0,0,1-.14.33l-15.43,16.81,14.9-5.16A.51.51,0,0,1,142.22,202.46Z" style="fill:#263238"></path></g><g id="freepik--Drops--inject-80"><path d="M337.2,228a14.61,14.61,0,0,1-29.22-.58c.16-8.06,15.15-27.49,15.15-27.49S337.35,219.89,337.2,228Z" style="fill:#009BE1"></path><path d="M322.59,242.78h-.3a15.13,15.13,0,0,1-14.81-15.41c.16-8.13,14.64-27,15.26-27.79a.54.54,0,0,1,.4-.19.49.49,0,0,1,.4.21c.59.82,14.32,20.23,14.16,28.37h0A15.14,15.14,0,0,1,322.59,242.78Zm.53-42c-2.41,3.19-14.5,19.59-14.64,26.65a14.11,14.11,0,1,0,28.22.56C336.83,220.88,325.4,204,323.12,200.74ZM337.2,228h0Z" style="fill:#263238"></path><path d="M316.84,212.11a11.31,11.31,0,1,1-22.61-.44c.12-6.25,11.73-21.29,11.73-21.29S317,205.87,316.84,212.11Z" style="fill:#009BE1"></path><path d="M305.54,223.7h-.23a11.8,11.8,0,0,1-11.58-12c.12-6.34,11.35-21,11.83-21.58a.6.6,0,0,1,.41-.2.53.53,0,0,1,.4.21c.45.64,11.1,15.69,11,22h0a11.81,11.81,0,0,1-11.8,11.58Zm.4-32.47c-2.06,2.75-11.11,15.1-11.21,20.45a10.81,10.81,0,1,0,21.61.42C316.45,206.75,307.89,194.05,305.94,191.23Zm10.9,20.88h0Z" style="fill:#263238"></path><path d="M333.87,225.5c-.05,2.76-1.62,5-3.5,4.93s-3.36-2.3-3.31-5.06,1.62-5,3.5-4.93S333.92,222.75,333.87,225.5Z" style="fill:#fff"></path><path d="M312.77,211.52c0,2.28-1.34,4.11-2.9,4.08s-2.78-1.91-2.74-4.19,1.35-4.11,2.9-4.08S312.82,209.24,312.77,211.52Z" style="fill:#fff"></path></g><g id="freepik--Icon--inject-80"><g id="freepik--LdiMUf--inject-80"><path d="M357.09,197.32h-.75l-12.9,0a6.51,6.51,0,0,1-6-3.38c-1.39-2.39-2.74-4.79-4.11-7.19,0-.06,0-.13,0-.1,7.7,0,15.42.07,23.14.08.53,0,.74.12.73.7,0,3.12,0,6.24-.05,9.36A5,5,0,0,1,357.09,197.32Z" style="fill:#009BE1"></path><path d="M357.09,197.82h0l-4.5,0-9.16,0a7,7,0,0,1-6.39-3.63c-1-1.73-2-3.48-3-5.22l-1.12-2a.58.58,0,0,1,0-.64.47.47,0,0,1,.48-.21l4.12,0q9.47,0,19,.06a1.27,1.27,0,0,1,.94.3,1.24,1.24,0,0,1,.29.91c0,2.17,0,4.35,0,6.53v2.82a3.29,3.29,0,0,1,0,.42l0,.22A.5.5,0,0,1,357.09,197.82ZM334.16,187.1l.76,1.33c1,1.74,2,3.48,3,5.21a6,6,0,0,0,5.53,3.13l9.16,0,4,0v-2.91c0-2.18,0-4.36,0-6.54,0-.1,0-.16,0-.19h-.22q-9.48,0-19-.06Z" style="fill:#263238"></path><path d="M368.46,183c0,1.35,0,2.52,0,3.75l.84.05c2.87,0,5.75,0,8.62,0a1,1,0,0,1,1,.59c1,1.76,2,3.48,3,5.23,1.37,2.45,0,4.84-2.85,4.82l-9.89,0h-.74c0,1.23,0,2.42,0,3.6l-.16.08-9.17-9Z" style="fill:#009BE1"></path><path d="M368.27,201.55a.52.52,0,0,1-.35-.14l-9.17-9a.48.48,0,0,1-.15-.36.47.47,0,0,1,.15-.35l9.37-9.08a.49.49,0,0,1,.54-.1.51.51,0,0,1,.3.46v3.28l.34,0h1.78c2.28,0,4.56,0,6.84,0h0a1.52,1.52,0,0,1,1.48.85c.56,1,1.13,2,1.7,3,.43.74.85,1.47,1.26,2.22a3.55,3.55,0,0,1-3.26,5.56h0l-10.14,0V201a.49.49,0,0,1-.28.45l-.16.08A.54.54,0,0,1,368.27,201.55ZM359.81,192l8.13,8v-2.65a.5.5,0,0,1,.5-.5h0l10.63,0a2.75,2.75,0,0,0,2.57-1.24,2.81,2.81,0,0,0-.16-2.83c-.41-.74-.83-1.48-1.25-2.21-.58-1-1.16-2-1.72-3a.52.52,0,0,0-.61-.34c-2.28,0-4.56,0-6.85,0h-1.77l-.57,0-.3,0a.5.5,0,0,1-.47-.5v-2.57Z" style="fill:#263238"></path><path d="M346.69,166.12c1.06,4.22,2.1,8.35,3.17,12.64l-3.26-1.88c-.14.21-.28.4-.39.6-1.47,2.52-2.95,5-4.39,7.56a1,1,0,0,1-1.05.61c-2-.05-3.92-.1-5.87,0a3.16,3.16,0,0,1-2.85-5c1.75-2.78,3.33-5.68,5-8.52l.34-.61-3.26-1.92Z" style="fill:#009BE1"></path><path d="M340.82,186.15h-.5c-1.77,0-3.61-.08-5.4,0a3.72,3.72,0,0,1-3.47-1.79,3.78,3.78,0,0,1,.17-4c1.23-1.95,2.39-4,3.51-5.94.49-.86,1-1.72,1.48-2.57a1.62,1.62,0,0,1,.1-.18L333.86,170a.5.5,0,0,1,.12-.91l12.58-3.47a.49.49,0,0,1,.61.36l3.18,12.64a.51.51,0,0,1-.74.56l-2.86-1.65a1.74,1.74,0,0,0-.11.18l-.88,1.51c-1.17,2-2.35,4-3.51,6A1.49,1.49,0,0,1,340.82,186.15ZM337,185.09c1.11,0,2.22,0,3.3,0h.44a.55.55,0,0,0,.6-.36c1.16-2,2.34-4,3.52-6.06l.87-1.5c.09-.15.19-.29.29-.44l.12-.18a.51.51,0,0,1,.67-.16l2.24,1.29-2.76-11-10.94,3,2.24,1.32a.5.5,0,0,1,.18.67l-.12.22c-.07.14-.14.27-.22.4L336,174.93c-1.13,2-2.3,4-3.53,6a2.66,2.66,0,0,0,2.41,4.22C335.6,185.1,336.32,185.09,337,185.09Z" style="fill:#263238"></path><path d="M343.08,161.77l2.53-4.34c1.48-2.53,2.95-5.08,4.44-7.61a6.48,6.48,0,0,1,6-3.37l7.68,0h.59c-4,6.89-8,13.73-12.05,20.63Z" style="fill:#009BE1"></path><path d="M352.24,167.61a.47.47,0,0,1-.25-.07l-9.16-5.34a.49.49,0,0,1-.18-.68l3.72-6.39c1.08-1.85,2.16-3.71,3.25-5.56A7,7,0,0,1,356,146h0l5.29,0h3a.52.52,0,0,1,.43.25.5.5,0,0,1,0,.5l-12,20.63A.51.51,0,0,1,352.24,167.61Zm-8.47-6,8.3,4.84L363.42,147h-2.11L356,147h0a6,6,0,0,0-5.53,3.13q-1.64,2.78-3.25,5.55Z" style="fill:#263238"></path><path d="M375.32,157.57l3.28-1.87-3.27,12.62-12.54-3.57,3.28-1.9-1.76-3.1c-1-1.76-2-3.52-3-5.27a.78.78,0,0,1,0-.91c1-1.77,2-3.55,3.1-5.3,1.45-2.42,4.2-2.39,5.6,0q2.44,4.26,4.87,8.52C375,157.07,375.14,157.29,375.32,157.57Z" style="fill:#009BE1"></path><path d="M375.33,168.82a.32.32,0,0,1-.14,0l-12.54-3.57a.5.5,0,0,1-.36-.42.48.48,0,0,1,.25-.49l2.85-1.66-2.18-3.83q-1.17-2.06-2.35-4.1a1.25,1.25,0,0,1,0-1.42l1.26-2.17c.61-1,1.22-2.1,1.84-3.13a3.81,3.81,0,0,1,3.22-2h0a3.82,3.82,0,0,1,3.21,2.1q1.59,2.76,3.16,5.52l1.71,3,.19.31,2.86-1.63a.5.5,0,0,1,.55,0,.51.51,0,0,1,.18.53l-3.27,12.62a.49.49,0,0,1-.24.31A.5.5,0,0,1,375.33,168.82Zm-11.27-4.23L375,167.7l2.85-11L375.56,158a.5.5,0,0,1-.67-.17l-.16-.26c-.11-.17-.2-.32-.29-.48l-1.72-3-3.15-5.51a2.57,2.57,0,0,0-4.74,0c-.62,1-1.23,2.08-1.83,3.12-.42.73-.84,1.46-1.27,2.18a.31.31,0,0,0,0,.41c.8,1.36,1.58,2.73,2.36,4.1l2.43,4.27a.51.51,0,0,1-.19.68Z" style="fill:#263238"></path><path d="M371.69,172.64l9.17-5.25c.14.22.27.39.38.58q3.22,5.64,6.46,11.29a6.48,6.48,0,0,1,0,6.91c-1.32,2.29-2.66,4.58-4,6.86-.08.13-.18.25-.23.32C379.58,186.46,375.65,179.58,371.69,172.64Z" style="fill:#009BE1"></path><path d="M383.52,193.81h0a.5.5,0,0,1-.42-.22l-11.82-20.7a.52.52,0,0,1,.19-.69l9.17-5.24a.5.5,0,0,1,.67.16l.13.19c.1.15.18.27.26.41L388.13,179a7,7,0,0,1,0,7.41c-1.11,1.92-2.23,3.83-3.35,5.75l-.65,1.12-.21.3A.6.6,0,0,1,383.52,193.81Zm-11.15-21,11.16,19.56.42-.71,3.34-5.75a6,6,0,0,0,0-6.41l-6.47-11.29a.86.86,0,0,0-.1-.16Z" style="fill:#263238"></path></g></g><g id="freepik--tree-1--inject-80"><path d="M355.4,35.44c-21.33,0-38.6,16.45-38.6,36.7v.31A19.82,19.82,0,0,0,337.07,92a29,29,0,0,1,5.36.34,13.4,13.4,0,0,1,8.39,5.2,5.61,5.61,0,0,0,4.38,2.24h.4A5.61,5.61,0,0,0,360,97.58a13.4,13.4,0,0,1,8.39-5.2,29,29,0,0,1,5.36-.34A19.82,19.82,0,0,0,394,72.45v-.31C394,51.89,376.72,35.48,355.4,35.44Z" style="fill:#009BE1"></path><polygon points="368.75 80.55 360.21 82.39 370.4 69.7 356.49 82.67 356.4 83.57 355.78 69.94 354.8 91.47 341.08 78.68 351.27 91.38 342.73 89.53 353.52 94.19 354.61 95.54 352.71 137.15 358.85 137.15 356.56 86.95 357.96 85.2 368.75 80.55" style="fill:#263238"></polygon><path d="M343.92,69.4s-1.29-3.67-4-5a22.82,22.82,0,0,0-4.58-1.65S336.77,70.32,343.92,69.4Z" style="fill:#263238"></path><path d="M347.24,59.66s-.22-3.88-2.5-5.88a22.26,22.26,0,0,0-3.94-2.86S340.11,58.54,347.24,59.66Z" style="fill:#263238"></path><path d="M377.78,89.35s-2.46-3-5.48-3.27a22,22,0,0,0-4.87,0S371.38,92.66,377.78,89.35Z" style="fill:#263238"></path><path d="M329.79,88.43s2.45-3,5.48-3.27a22.83,22.83,0,0,1,4.87,0S336.19,91.74,329.79,88.43Z" style="fill:#263238"></path><path d="M336.42,56.36s-.21-3.88-2.49-5.88A22.7,22.7,0,0,0,330,47.62S329.3,55.25,336.42,56.36Z" style="fill:#263238"></path><path d="M372.35,58.56s.21-3.88,2.49-5.88a22.26,22.26,0,0,1,3.94-2.86S379.47,57.45,372.35,58.56Z" style="fill:#263238"></path><path d="M354.46,53.57s2.24-3.18,1.69-6.16a22.41,22.41,0,0,0-1.32-4.69S349.56,48.28,354.46,53.57Z" style="fill:#263238"></path><path d="M357,68.17s.36-3.87-1.6-6.18a22.33,22.33,0,0,0-3.48-3.41S350.08,66,357,68.17Z" style="fill:#263238"></path><path d="M347.73,50.5s1.16-3.7-.28-6.37a22.67,22.67,0,0,0-2.69-4.06S341.45,47,347.73,50.5Z" style="fill:#263238"></path><path d="M350.66,79.28s1.16-3.71-.28-6.38a22.67,22.67,0,0,0-2.69-4.06S344.38,75.75,350.66,79.28Z" style="fill:#263238"></path><path d="M359.35,74.93s3.28-2.08,3.91-5.05a22.37,22.37,0,0,0,.57-4.84S356.84,68.17,359.35,74.93Z" style="fill:#263238"></path><path d="M359.74,50.5s-1.16-3.7.28-6.37a22.67,22.67,0,0,1,2.69-4.06S366,47,359.74,50.5Z" style="fill:#263238"></path><path d="M364.31,59.82s3.28-2.09,3.89-5.06a22.16,22.16,0,0,0,.55-4.84S361.78,53.08,364.31,59.82Z" style="fill:#263238"></path><path d="M373.14,70s3.76-1,5.27-3.61a22.83,22.83,0,0,0,2-4.42S372.82,62.77,373.14,70Z" style="fill:#263238"></path><path d="M374,79s3.53,1.63,6.36.54a22.53,22.53,0,0,0,4.38-2.14S378.3,73.26,374,79Z" style="fill:#263238"></path><path d="M378.93,70.79s3.53,1.63,6.36.54a22.21,22.21,0,0,0,4.37-2.14S383.24,65,378.93,70.79Z" style="fill:#263238"></path><path d="M329.56,76.06s2.37,3.08,5.38,3.43a22.25,22.25,0,0,0,4.87.13S336.06,73,329.56,76.06Z" style="fill:#263238"></path><path d="M321.86,65.43s2.37,3.08,5.38,3.43a22.25,22.25,0,0,0,4.87.13S328.36,62.31,321.86,65.43Z" style="fill:#263238"></path></g><g id="freepik--Chart--inject-80"><path d="M229.44,195a74.38,74.38,0,1,1,74.38-74.37A74.46,74.46,0,0,1,229.44,195Zm0-147.75a73.38,73.38,0,1,0,73.38,73.38A73.47,73.47,0,0,0,229.44,47.29Z" style="fill:#263238"></path><path d="M303.32,121.17H229.44a.51.51,0,0,1-.5-.5V46.79a.5.5,0,0,1,.5-.5,74.46,74.46,0,0,1,74.38,74.38A.51.51,0,0,1,303.32,121.17Zm-73.38-1h72.88a73.47,73.47,0,0,0-72.88-72.88Z" style="fill:#263238"></path><path d="M289.93,163.56a.52.52,0,0,1-.29-.09l-60.49-42.4a.52.52,0,0,1-.19-.56.51.51,0,0,1,.48-.34h73.88a.5.5,0,0,1,.5.5,73.87,73.87,0,0,1-13.48,42.67A.52.52,0,0,1,289.93,163.56ZM231,121.17l58.77,41.19a72.82,72.82,0,0,0,13-41.19Z" style="fill:#263238"></path><path d="M261.42,187.78a.51.51,0,0,1-.17,0,.46.46,0,0,1-.28-.25l-32-66.62a.5.5,0,0,1,.13-.6.51.51,0,0,1,.61,0l60.48,42.39a.47.47,0,0,1,.21.32.52.52,0,0,1-.08.37,74.72,74.72,0,0,1-28.71,24.39A.5.5,0,0,1,261.42,187.78Zm-30.7-65.61,30.93,64.44a73.78,73.78,0,0,0,27.58-23.43Z" style="fill:#263238"></path><path d="M334.58,99.33h-46a.51.51,0,0,1-.5-.5.5.5,0,0,1,.5-.5h46a.5.5,0,0,1,.5.5A.5.5,0,0,1,334.58,99.33Z" style="fill:#263238"></path><path d="M333.7,158.17a.45.45,0,0,1-.16,0l-45.76-15.69a.5.5,0,0,1,.32-.95l45.77,15.69a.5.5,0,0,1-.17,1Z" style="fill:#263238"></path><path d="M295.78,195.43a.49.49,0,0,1-.32-.12L270,173.08a.5.5,0,0,1,.65-.75l25.5,22.23a.49.49,0,0,1,.05.7A.52.52,0,0,1,295.78,195.43Z" style="fill:#263238"></path></g><g id="freepik--magnifying-glass--inject-80"><path d="M593.65,204.34a9.6,9.6,0,0,1-6.29-16.85L690.67,89.7a16,16,0,1,1,21,24.19L599.93,202A9.57,9.57,0,0,1,593.65,204.34Z" style="fill:#263238"></path><circle cx="519.3" cy="257.44" r="73.91" transform="translate(252.84 772.16) rotate(-89)" style="fill:#fff;opacity:0.58"></circle><path d="M519.3,168.21a89.23,89.23,0,1,0,89.22,89.23A89.23,89.23,0,0,0,519.3,168.21Zm0,163.14a73.91,73.91,0,1,1,73.9-73.91A73.91,73.91,0,0,1,519.3,331.35Z" style="fill:#263238"></path><path d="M525.39,168.21a89.23,89.23,0,1,0,89.23,89.23A89.22,89.22,0,0,0,525.39,168.21Zm0,163.14a73.91,73.91,0,1,1,73.91-73.91A73.91,73.91,0,0,1,525.39,331.35Z" style="fill:#fff"></path><path d="M525.39,347.17a89.73,89.73,0,1,1,89.73-89.73A89.83,89.83,0,0,1,525.39,347.17Zm0-178.46a88.73,88.73,0,1,0,88.73,88.73A88.82,88.82,0,0,0,525.39,168.71Zm0,163.14a74.41,74.41,0,1,1,74.41-74.41A74.49,74.49,0,0,1,525.39,331.85Zm0-147.82a73.41,73.41,0,1,0,73.41,73.41A73.49,73.49,0,0,0,525.39,184Z" style="fill:#263238"></path></g></svg>
