<svg xmlns="http://www.w3.org/2000/svg" viewBox="0 0 500 500"><g id="freepik--background-simple--inject-248"><path d="M417.07,222.06c1.54-41.41-13.35-83.33-46.15-103.29-16.19-9.85-35.12-15.62-54.06-14.77-20.32.91-39.45,9.18-58.61,16s-39.91,12.28-59.66,7.44c-14.29-3.51-26.86-12.15-41-16.1C101.88,95.84,53.37,159,80.63,209.26c6.69,12.32,17,22.2,25.67,33.24s15.94,24.34,14.77,38.32c-1,11.56-7.56,21.87-10.29,33.15-5.22,21.6,5.14,45.38,23.05,58.54s42.07,16.27,63.63,10.86,40.59-18.68,55.57-35.11c8-8.79,15.83-19.08,27.35-22.06,11-2.87,22.44,1.79,33.64,3.93a77.48,77.48,0,0,0,59.77-13.59C400.89,296.52,415.69,259.5,417.07,222.06Z" style="fill:#009BE1"></path><path d="M417.07,222.06c1.54-41.41-13.35-83.33-46.15-103.29-16.19-9.85-35.12-15.62-54.06-14.77-20.32.91-39.45,9.18-58.61,16s-39.91,12.28-59.66,7.44c-14.29-3.51-26.86-12.15-41-16.1C101.88,95.84,53.37,159,80.63,209.26c6.69,12.32,17,22.2,25.67,33.24s15.94,24.34,14.77,38.32c-1,11.56-7.56,21.87-10.29,33.15-5.22,21.6,5.14,45.38,23.05,58.54s42.07,16.27,63.63,10.86,40.59-18.68,55.57-35.11c8-8.79,15.83-19.08,27.35-22.06,11-2.87,22.44,1.79,33.64,3.93a77.48,77.48,0,0,0,59.77-13.59C400.89,296.52,415.69,259.5,417.07,222.06Z" style="fill:#fff;opacity:0.7000000000000001"></path></g><g id="freepik--Lines--inject-248"><line x1="108.43" y1="200.03" x2="109.33" y2="200.48" style="fill:none;stroke:#263238;stroke-linecap:round;stroke-linejoin:round"></line><line x1="111.11" y1="201.38" x2="245.83" y2="269.05" style="fill:none;stroke:#263238;stroke-linecap:round;stroke-linejoin:round;stroke-dasharray:1.9968299865722656,1.9968299865722656"></line><polyline points="246.72 269.49 247.62 269.94 247.12 269.07" style="fill:none;stroke:#263238;stroke-linecap:round;stroke-linejoin:round"></polyline><line x1="246.15" y1="267.35" x2="162.7" y2="119.69" style="fill:none;stroke:#263238;stroke-linecap:round;stroke-linejoin:round;stroke-dasharray:1.9836399555206299,1.9836399555206299"></line><line x1="162.21" y1="118.83" x2="161.72" y2="117.96" style="fill:none;stroke:#263238;stroke-linecap:round;stroke-linejoin:round"></line><line x1="386.75" y1="200.03" x2="385.85" y2="200.48" style="fill:none;stroke:#263238;stroke-linecap:round;stroke-linejoin:round"></line><line x1="384.07" y1="201.38" x2="249.35" y2="269.05" style="fill:none;stroke:#263238;stroke-linecap:round;stroke-linejoin:round;stroke-dasharray:1.9968299865722656,1.9968299865722656"></line><polyline points="248.46 269.49 247.56 269.94 248.05 269.07" style="fill:none;stroke:#263238;stroke-linecap:round;stroke-linejoin:round"></polyline><line x1="249.03" y1="267.35" x2="332.48" y2="119.69" style="fill:none;stroke:#263238;stroke-linecap:round;stroke-linejoin:round;stroke-dasharray:1.9836399555206299,1.9836399555206299"></line><line x1="332.97" y1="118.83" x2="333.46" y2="117.96" style="fill:none;stroke:#263238;stroke-linecap:round;stroke-linejoin:round"></line><line x1="247.62" y1="269.94" x2="247.62" y2="268.94" style="fill:none;stroke:#263238;stroke-linecap:round;stroke-linejoin:round"></line><line x1="247.62" y1="266.93" x2="247.62" y2="90.36" style="fill:none;stroke:#263238;stroke-linecap:round;stroke-linejoin:round;stroke-dasharray:2.0179100036621094,2.0179100036621094"></line><line x1="247.62" y1="89.35" x2="247.62" y2="88.35" style="fill:none;stroke:#263238;stroke-linecap:round;stroke-linejoin:round"></line></g><g id="freepik--icon-5--inject-248"><path d="M383.21,182.7v26l39.31,22.7V205.24ZM416.27,220l-26.82-15.49V193.73l26.82,15.37Z" style="fill:#263238;stroke:#263238;stroke-miterlimit:10"></path><polygon points="416.27 193.73 416.27 201.72 422.52 205.24 422.52 182.71 383.21 205.24 383.21 231.39 403.05 219.94 403.05 212.19 389.45 220.04 389.45 209.1 403.05 201.31 403.05 194.08 409.42 197.66 416.27 193.73" style="fill:#fff;stroke:#263238;stroke-miterlimit:10"></polygon><polygon points="416.27 209.1 412.27 206.86 403.17 212.12 409.72 216.09 416.27 212.3 416.27 209.1" style="fill:#fff;stroke:#263238;stroke-miterlimit:10"></polygon></g><g id="freepik--icon-4--inject-248"><rect x="321.97" y="114.13" width="55.72" height="15.09" transform="translate(-8.23 216.45) rotate(-34)" style="fill:#263238"></rect><rect x="333.12" y="96.62" width="13.54" height="17.85" transform="matrix(0.83, -0.56, 0.56, 0.83, -0.91, 208.13)" style="fill:#263238"></rect><rect x="354.29" y="128.02" width="13.54" height="17.85" transform="translate(-14.84 225.34) rotate(-34)" style="fill:#263238"></rect><rect x="349.21" y="96.87" width="7.41" height="9.65" transform="translate(3.48 214.76) rotate(-34)" style="fill:#263238"></rect><rect x="364.85" y="121.76" width="7.41" height="6.23" transform="translate(-6.81 227.47) rotate(-34)" style="fill:#263238"></rect><rect x="325.5" y="112.1" width="9.49" height="9.71" transform="translate(-8.94 204.68) rotate(-34)" style="fill:#263238"></rect><rect x="341.14" y="137.05" width="9.49" height="6.17" transform="translate(-19.23 217.39) rotate(-34)" style="fill:#263238"></rect><rect x="335.48" y="141.19" width="4.32" height="4.35" transform="matrix(0.56, 0.83, -0.83, 0.56, 267.66, -216.71)" style="fill:#263238"></rect><rect x="325.51" y="105.82" width="3.49" height="3.51" transform="translate(233.42 -223.88) rotate(56)" style="fill:#263238"></rect></g><g id="freepik--icon-3--inject-248"><polygon points="247.06 52.09 223.45 60.11 226.8 92 247.06 103.23 247.06 52.09" style="fill:#fff;stroke:#263238;stroke-linecap:round;stroke-linejoin:round"></polygon><polygon points="247.14 52.09 270.74 60.11 267.4 92 247.14 103.23 247.14 52.09" style="fill:#263238;stroke:#263238;stroke-linecap:round;stroke-linejoin:round"></polygon><path d="M257,90.94h4.91L247.1,58.33,232.3,90.94h4.91l3.39-7.48h13Zm-14.3-12.07,4.41-9.72,4.41,9.72Z" style="fill:#fff;stroke:#263238;stroke-linecap:round;stroke-linejoin:round"></path></g><g id="freepik--icon-2--inject-248"><polygon points="155.48 106.17 149.12 95.15 126.63 95.15 155.48 145.13 184.33 95.15 161.84 95.15 155.48 106.17" style="fill:#fff;stroke:#263238;stroke-linecap:round;stroke-linejoin:round"></polygon><polygon points="155.48 106.17 149.12 95.15 138.22 95.15 155.48 125.06 172.75 95.15 161.84 95.15 155.48 106.17" style="fill:#263238;stroke:#263238;stroke-linecap:round;stroke-linejoin:round"></polygon></g><g id="freepik--icon-1--inject-248"><path d="M123.07,190.23c-1-.39-2.08-.74-3.2-1.06.25-1.14.44-2.25.58-3.32.78-6.22-.5-10.56-3.6-12.23s-7.43-.36-12.2,3.69c-.6.51-1.2,1.06-1.79,1.64-.61-.58-1.21-1.12-1.81-1.62-4.82-4-9.17-5.27-12.24-3.56S84.5,179.84,85.34,186c.15,1.07.35,2.17.61,3.3-1.11.33-2.17.69-3.17,1.09-5.83,2.29-9,5.5-9,9s3.25,6.69,9.09,8.93c1,.39,2.08.74,3.21,1.06-.25,1.14-.44,2.25-.58,3.32-.78,6.22.5,10.56,3.6,12.23a5.94,5.94,0,0,0,2.91.71c2.68,0,5.87-1.49,9.29-4.4.6-.51,1.19-1.06,1.79-1.64.6.58,1.21,1.12,1.81,1.62,3.42,2.84,6.6,4.3,9.26,4.3a6,6,0,0,0,3-.74c3.08-1.71,4.31-6.06,3.46-12.27-.14-1.07-.35-2.17-.6-3.3,1.11-.33,2.17-.69,3.17-1.08,5.83-2.3,9-5.51,9-9S128.92,192.47,123.07,190.23Zm-9.14-14.42a3.18,3.18,0,0,1,1.54.36c1.92,1,2.7,4.52,2.1,9.32-.12,1-.29,2-.51,3a58.21,58.21,0,0,0-7.11-1.09,58.07,58.07,0,0,0-5.06-6.37c.54-.53,1.09-1,1.64-1.49C109.36,177.11,112,175.81,113.93,175.81Zm1,27c.6,1.52,1.1,3,1.52,4.4-1.37.31-2.82.58-4.36.8.56-.94,1.11-1.9,1.64-2.88C114.15,204.35,114.55,203.58,114.93,202.8Zm-3.75.94c-.89,1.66-1.81,3.21-2.76,4.67-1.72.14-3.53.22-5.41.23s-3.67,0-5.4-.18c-1-1.47-1.91-3-2.81-4.63s-1.58-3-2.27-4.47q1-2.21,2.22-4.49t2.76-4.67c1.73-.14,3.54-.22,5.41-.23h.36c1.71,0,3.4.06,5,.18,1,1.47,1.91,3,2.8,4.63s1.6,3,2.28,4.47C112.74,200.74,112,202.25,111.18,203.74Zm-8.12,11.76q-1.69-1.84-3.33-4,1.45.06,2.94.06H103c1.11,0,2.21,0,3.3-.09A51.33,51.33,0,0,1,103.06,215.5ZM92.27,205.24c.54,1,1.1,1.92,1.67,2.85-1.54-.2-3-.46-4.36-.76.4-1.4.89-2.87,1.46-4.4C91.44,203.7,91.84,204.47,92.27,205.24ZM91,195.81c-.59-1.5-1.09-3-1.52-4.4,1.37-.31,2.82-.58,4.36-.8Q93,192,92.2,193.49C91.79,194.26,91.39,195,91,195.81Zm11.87-12.7q1.7,1.84,3.33,4c-1.09,0-2.19-.07-3.3-.06s-2.22,0-3.31.09C100.67,185.7,101.77,184.35,102.88,183.11Zm10.79,10.26c-.54-1-1.1-1.92-1.67-2.84q2.27.3,4.35.75c-.4,1.43-.89,2.9-1.46,4.39C114.5,194.91,114.09,194.14,113.67,193.37Zm-25.45-7.72c-.66-4.8.09-8.29,2-9.34a3.25,3.25,0,0,1,1.59-.38c1.93,0,4.56,1.27,7.39,3.63.55.46,1.11.95,1.66,1.48a56.25,56.25,0,0,0-5,6.41,59.79,59.79,0,0,0-7.1,1.16C88.53,187.59,88.35,186.6,88.22,185.65ZM76.67,199.43c0-2.61,3.74-5.41,10-7.28a59.37,59.37,0,0,0,2.67,7.23,58.77,58.77,0,0,0-2.59,7.25C80.47,204.82,76.68,202.05,76.67,199.43Zm13.79,23c-2.29-1.24-2.95-5.89-1.58-12.3a58.35,58.35,0,0,0,7.1,1.09,59.09,59.09,0,0,0,5.07,6.37c-3.5,3.38-6.74,5.21-9,5.21A3.18,3.18,0,0,1,90.46,222.44Zm25.27-.13c-1.91,1.05-5.27-.17-9-3.26q-.83-.69-1.65-1.47a58.48,58.48,0,0,0,5-6.42,59.79,59.79,0,0,0,7.1-1.16C118.61,216.39,118,221,115.73,222.31Zm3.52-15.85a61.09,61.09,0,0,0-2.67-7.23,61.61,61.61,0,0,0,2.59-7.25c1,.29,2,.61,2.87,1,4.51,1.73,7.22,4.06,7.23,6.24C129.28,201.79,125.52,204.59,119.25,206.46Z" style="fill:#263238"></path><path d="M108.43,199a5.46,5.46,0,1,1-5.46-5.46A5.45,5.45,0,0,1,108.43,199Z" style="fill:#263238"></path></g></svg>